<svg width="103" height="26" viewBox="0 0 103 26" fill="none" xmlns="http://www.w3.org/2000/svg">
<g clip-path="url(#clip0_971_99)">
<path d="M22.8231 0H1.59364C0.713497 0 0 0.738265 0 1.64896V23.6154C0 24.5261 0.713497 25.2643 1.59364 25.2643H22.8231C23.7032 25.2643 24.4167 24.5261 24.4167 23.6154V1.64896C24.4167 0.738265 23.7032 0 22.8231 0Z" fill="#7BB858"/>
<path d="M22.0592 11.1579C22.0592 11.1579 18.6259 23.4437 8.67491 23.1328C8.3888 23.124 6.29732 22.8368 5.25159 22.7021C7.14707 21.4528 8.04117 20.8518 8.22857 20.6979C10.4431 18.892 11.8922 16.4748 12.5117 13.5781C14.543 13.47 21.1007 12.9682 22.0592 11.1579Z" fill="#DADD2F"/>
<path d="M10.6807 2.12708C11.1399 4.52651 4.41913 10.7405 4.41913 10.7405C0.65677 14.9221 3.00431 20.0925 4.0057 21.8717C4.09609 21.1494 4.22745 20.4332 4.3991 19.7268C4.71453 18.4669 5.20867 17.2622 5.86542 16.1521C6.18158 15.6 6.52062 15.0686 6.86681 14.5505C7.21301 14.0325 7.61213 13.5307 7.97263 13.0259C8.34172 12.5324 8.67136 12.0087 8.95828 11.4598C9.24627 10.9079 9.43347 10.3057 9.51048 9.68358C9.48528 10.3197 9.34657 10.9455 9.10134 11.5294C8.85913 12.1128 8.5721 12.6751 8.24301 13.2109C7.92113 13.7497 7.58495 14.2737 7.28596 14.8125C6.98698 15.3513 6.69515 15.902 6.43621 16.46C5.90689 17.5525 5.53758 18.7203 5.34041 19.9252C5.23145 20.6189 5.16409 21.3189 5.1387 22.0212C6.06856 21.4084 7.63931 20.3693 7.85676 20.1946C15.6633 13.8311 10.6807 2.12708 10.6807 2.12708Z" fill="#086A39"/>
<path d="M37.4975 2.86572H34.6364V11.3784H32.4076V2.86572H29.5465V0.726807H37.4975V2.86572Z" fill="url(#paint0_linear_971_99)"/>
<path d="M38.7266 3.16026H40.8724V11.3784H38.7266V3.16026ZM38.7266 0H40.8652V2.0723H38.7309L38.7266 0Z" fill="url(#paint1_linear_971_99)"/>
<path d="M46.6361 11.6108C46.0795 11.6204 45.5267 11.514 45.0106 11.298C44.4946 11.0819 44.0258 10.7605 43.6323 10.3531C43.2388 9.94564 42.9286 9.46041 42.7201 8.92629C42.5116 8.39218 42.4092 7.82011 42.4188 7.24417C42.4188 4.78257 44.2342 2.92786 46.6476 2.92786C48.7047 2.92786 50.2998 4.27781 50.6875 6.29979H48.5473C48.3881 5.9137 48.1212 5.58551 47.7807 5.35717C47.4403 5.12883 47.0418 5.01072 46.6361 5.01792C45.4716 5.01792 44.5961 5.9845 44.5961 7.25749C44.5961 8.53048 45.486 9.52222 46.6361 9.52222C47.503 9.52222 48.1897 9.02191 48.5516 8.14414H50.7132C50.3398 10.209 48.7104 11.6108 46.6361 11.6108Z" fill="url(#paint2_linear_971_99)"/>
<path d="M57.009 11.3784L54.4683 7.44697V11.3784H52.3225V0.199829H54.4683V6.809L56.8516 3.1573H59.3251L56.6385 7.07395L59.6112 11.3784H57.009Z" fill="url(#paint3_linear_971_99)"/>
<path d="M67.9111 7.8925H61.9028C62.0859 9.01303 62.8012 9.63028 63.8412 9.63028C64.1776 9.64116 64.5106 9.55862 64.8057 9.39124C65.1008 9.22386 65.3472 8.97775 65.5193 8.6785H67.7767C67.5121 9.54095 66.9857 10.2921 66.2757 10.8204C65.5656 11.3486 64.7099 11.6258 63.8355 11.6108C61.4908 11.6108 59.7169 9.73241 59.7169 7.26933C59.7169 4.80625 61.4779 2.92786 63.8355 2.92786C66.2746 2.92786 67.9469 4.87286 67.9469 7.23973C67.9478 7.45787 67.9359 7.67586 67.9111 7.8925ZM61.9572 6.3738H65.8054C65.5021 5.37021 64.804 4.82549 63.8412 4.82549C62.8784 4.82549 62.2061 5.4013 61.9572 6.3738Z" fill="url(#paint4_linear_971_99)"/>
<path d="M74.2203 9.39937V11.3784H72.6953C70.9472 11.3784 69.8743 10.2668 69.8743 8.44463V4.94688H68.4437V4.46729L71.5752 1.01691H71.9858V3.16026H74.176V4.94688H72.0215V8.15007C72.0215 8.94347 72.4622 9.39937 73.2447 9.39937H74.2203Z" fill="url(#paint5_linear_971_99)"/>
<path d="M75.6864 0.199829H77.8322V11.3784H75.6864V0.199829Z" fill="url(#paint6_linear_971_99)"/>
<path d="M87.5583 7.8925H81.5499C81.7359 9.01303 82.4483 9.63028 83.4912 9.63028C83.8285 9.64223 84.1628 9.5602 84.459 9.39277C84.7552 9.22534 85.0024 8.97865 85.175 8.6785H87.4324C87.1676 9.54083 86.6411 10.2918 85.9312 10.8201C85.2212 11.3483 84.3656 11.6256 83.4912 11.6108C81.1465 11.6108 79.3712 9.73241 79.3712 7.26933C79.3712 4.80625 81.1337 2.92786 83.4912 2.92786C85.9232 2.92786 87.6012 4.87286 87.6012 7.23973C87.6004 7.45805 87.5861 7.67609 87.5583 7.8925ZM81.6057 6.3738H85.4539C85.1492 5.37021 84.4525 4.82549 83.4898 4.82549C82.527 4.82549 81.8547 5.4013 81.6057 6.3738Z" fill="url(#paint7_linear_971_99)"/>
<path d="M91.9491 11.6093C89.9563 11.6093 88.6245 10.4252 88.613 8.6711H90.7074C90.7174 9.4112 91.2596 9.76942 92.0292 9.76942C92.6257 9.76942 93.1593 9.48966 93.1593 8.9405C93.1593 8.39134 92.4698 8.20779 91.6315 8.06273C90.3626 7.84514 88.7489 7.49284 88.7489 5.55672C88.7489 4.00249 90.0264 2.92786 91.9434 2.92786C93.8603 2.92786 95.1192 4.0321 95.1264 5.67366H93.0892C93.0807 5.02088 92.6386 4.69968 91.8904 4.69968C91.2209 4.69968 90.8275 5.01644 90.8275 5.48567C90.8275 6.03483 91.5056 6.16065 92.3296 6.31607C93.6257 6.55735 95.2751 6.84007 95.2751 8.8428C95.2751 10.5184 93.9504 11.6108 91.9448 11.6108L91.9491 11.6093Z" fill="url(#paint8_linear_971_99)"/>
<path d="M99.6694 11.6093C97.6767 11.6093 96.3448 10.4252 96.3334 8.6711H98.422C98.432 9.4112 98.9742 9.76942 99.7438 9.76942C100.34 9.76942 100.874 9.48966 100.874 8.9405C100.874 8.39134 100.186 8.20779 99.3461 8.06273C98.0772 7.84514 96.4636 7.49284 96.4636 5.55672C96.4636 4.00249 97.741 2.92786 99.658 2.92786C101.575 2.92786 102.834 4.0321 102.841 5.67366H100.81C100.802 5.02088 100.359 4.69968 99.6108 4.69968C98.9427 4.69968 98.5479 5.01644 98.5479 5.48567C98.5479 6.03483 99.226 6.16065 100.051 6.31607C101.346 6.55735 103 6.84007 103 8.8428C103 10.5184 101.675 11.6108 99.6694 11.6108V11.6093Z" fill="url(#paint9_linear_971_99)"/>
<path d="M69.1719 19.6321C69.1719 20.8769 68.2392 21.811 66.9974 21.811H65.6856V24.052H64.6399V17.4517H66.9974C68.2377 17.4517 69.1719 18.3783 69.1719 19.6321ZM68.1061 19.6321C68.1061 18.9675 67.6298 18.479 66.9459 18.479H65.6856V20.7837H66.9502C67.6298 20.7837 68.1061 20.2952 68.1061 19.6321Z" fill="#0271C5"/>
<path d="M74.9957 18.9571V24.0491H74.1803L74.0816 23.4303C73.8472 23.6708 73.5685 23.8602 73.2621 23.9874C72.9557 24.1145 72.6278 24.1767 72.2977 24.1704C70.8314 24.1704 69.7356 23.0248 69.7356 21.506C69.7356 19.9873 70.8314 18.8417 72.2977 18.8417C72.6323 18.8342 72.9648 18.8971 73.2751 19.0266C73.5855 19.1561 73.8672 19.3495 74.1031 19.5951L74.2218 18.9571H74.9957ZM73.9829 21.5031C73.9818 21.1738 73.8863 20.8523 73.7086 20.5791C73.5309 20.3059 73.2789 20.0934 72.9845 19.9684C72.69 19.8434 72.3664 19.8115 72.0545 19.8768C71.7426 19.9421 71.4563 20.1016 71.232 20.3352C71.0077 20.5687 70.8553 20.8659 70.7942 21.189C70.733 21.5122 70.7658 21.8469 70.8885 22.1507C71.0111 22.4546 71.218 22.714 71.4831 22.8962C71.7482 23.0784 72.0596 23.1751 72.3778 23.1743C72.591 23.1802 72.8032 23.141 73.0012 23.059C73.1992 22.977 73.3789 22.854 73.5292 22.6974C73.6796 22.5409 73.7974 22.3542 73.8754 22.1488C73.9534 21.9434 73.99 21.7237 73.9829 21.5031Z" fill="#0271C5"/>
<path d="M79.2384 18.9319V19.9207H78.7048C77.868 19.9207 77.4502 20.4136 77.4502 21.3358V24.052H76.4388V18.9601H77.1241L77.2943 19.6558C77.6462 19.1717 78.1298 18.9319 78.8007 18.9319H79.2384Z" fill="#0271C5"/>
<path d="M81.7548 21.8791H81.1425V24.0521H80.1311V17.135H81.1425V20.9288H81.7634L83.0909 18.9601H84.2897L82.6231 21.404L84.4671 24.0521H83.2297L81.7548 21.8791Z" fill="#0271C5"/>
<path d="M85.1884 17.092H86.2327V18.1711H85.1884V17.092ZM85.2055 18.9601H86.2169V24.052H85.2055V18.9601Z" fill="#0271C5"/>
<path d="M90.2593 18.8447C91.4037 18.8447 92.129 19.7328 92.129 20.9865V24.0521H91.1176V21.1982C91.1176 20.2745 90.7285 19.7831 89.9889 19.7831C89.2164 19.7831 88.667 20.427 88.667 21.3255V24.0521H87.6556V18.9601H88.3609L88.5569 19.6706C88.758 19.4042 89.0169 19.1906 89.3127 19.0471C89.6084 18.9036 89.9327 18.8342 90.2593 18.8447Z" fill="#0271C5"/>
<path d="M98.1951 18.9601V23.3874C98.1951 25.0157 97.2623 26.003 95.7402 26.003C94.4799 26.003 93.5858 25.3265 93.334 24.209H94.3426C94.5314 24.767 95.1108 25.0749 95.7316 25.0749C96.5828 25.0749 97.2051 24.4961 97.2051 23.531V23.2957C96.7516 23.697 96.1724 23.9138 95.5757 23.9055C94.9366 23.8895 94.3289 23.6156 93.8823 23.1422C93.4358 22.6689 93.1858 22.0336 93.1858 21.3721C93.1858 20.7106 93.4358 20.0754 93.8823 19.602C94.3289 19.1287 94.9366 18.8547 95.5757 18.8387C95.9109 18.834 96.2434 18.9009 96.5523 19.0354C96.8613 19.1699 97.14 19.369 97.3711 19.6203L97.5313 18.9631L98.1951 18.9601ZM95.6916 22.9315C95.9895 22.9295 96.2801 22.8362 96.5268 22.6634C96.7735 22.4906 96.9652 22.246 97.0777 21.9606C97.1902 21.6752 97.2185 21.3617 97.159 21.0596C97.0994 20.7576 96.9547 20.4806 96.7432 20.2635C96.5316 20.0465 96.2627 19.8992 95.9703 19.8402C95.6779 19.7811 95.3752 19.813 95.1003 19.9319C94.8254 20.0507 94.5907 20.2511 94.4258 20.5079C94.2609 20.7646 94.1732 21.0661 94.1738 21.3744C94.1675 21.5817 94.2026 21.7882 94.2769 21.9809C94.3511 22.1737 94.4629 22.3485 94.6053 22.4946C94.7477 22.6407 94.9176 22.7549 95.1045 22.8301C95.2914 22.9052 95.4912 22.9398 95.6916 22.9315Z" fill="#0271C5"/>
<path d="M60.9488 18.22H44.144V18.8357H60.9488V18.22Z" fill="#0271C5"/>
<path d="M57.6784 20.7512H40.8737V21.3669H57.6784V20.7512Z" fill="#0271C5"/>
<path d="M54.3022 23.7427H37.4974V24.3584H54.3022V23.7427Z" fill="#0271C5"/>
</g>
<defs>
<linearGradient id="paint0_linear_971_99" x1="33.522" y1="13.0896" x2="33.522" y2="1.50984" gradientUnits="userSpaceOnUse">
<stop stop-color="#086A39"/>
<stop offset="1" stop-color="#67BB49"/>
</linearGradient>
<linearGradient id="paint1_linear_971_99" x1="39.8009" y1="13.0896" x2="39.8009" y2="1.50982" gradientUnits="userSpaceOnUse">
<stop stop-color="#086A39"/>
<stop offset="1" stop-color="#67BB49"/>
</linearGradient>
<linearGradient id="paint2_linear_971_99" x1="46.5589" y1="13.0895" x2="46.5589" y2="1.50981" gradientUnits="userSpaceOnUse">
<stop stop-color="#086A39"/>
<stop offset="1" stop-color="#67BB49"/>
</linearGradient>
<linearGradient id="paint3_linear_971_99" x1="55.9661" y1="13.0896" x2="55.9661" y2="1.50982" gradientUnits="userSpaceOnUse">
<stop stop-color="#086A39"/>
<stop offset="1" stop-color="#67BB49"/>
</linearGradient>
<linearGradient id="paint4_linear_971_99" x1="63.8369" y1="13.0895" x2="63.8369" y2="1.50981" gradientUnits="userSpaceOnUse">
<stop stop-color="#086A39"/>
<stop offset="1" stop-color="#67BB49"/>
</linearGradient>
<linearGradient id="paint5_linear_971_99" x1="71.3292" y1="13.0896" x2="71.3292" y2="1.50982" gradientUnits="userSpaceOnUse">
<stop stop-color="#086A39"/>
<stop offset="1" stop-color="#67BB49"/>
</linearGradient>
<linearGradient id="paint6_linear_971_99" x1="76.7593" y1="13.0896" x2="76.7593" y2="1.50982" gradientUnits="userSpaceOnUse">
<stop stop-color="#086A39"/>
<stop offset="1" stop-color="#67BB49"/>
</linearGradient>
<linearGradient id="paint7_linear_971_99" x1="83.4855" y1="13.0895" x2="83.4855" y2="1.50981" gradientUnits="userSpaceOnUse">
<stop stop-color="#086A39"/>
<stop offset="1" stop-color="#67BB49"/>
</linearGradient>
<linearGradient id="paint8_linear_971_99" x1="91.9462" y1="13.0895" x2="91.9462" y2="1.50981" gradientUnits="userSpaceOnUse">
<stop stop-color="#086A39"/>
<stop offset="1" stop-color="#67BB49"/>
</linearGradient>
<linearGradient id="paint9_linear_971_99" x1="99.6666" y1="13.0895" x2="99.6666" y2="1.50981" gradientUnits="userSpaceOnUse">
<stop stop-color="#086A39"/>
<stop offset="1" stop-color="#67BB49"/>
</linearGradient>
<clipPath id="clip0_971_99">
<rect width="103" height="26" fill="white"/>
</clipPath>
</defs>
</svg>
